<svg width="14" height="14" viewBox="0 0 14 14" fill="none" xmlns="http://www.w3.org/2000/svg">
    <path d="M12.7813 2.75596V0.754395C12.7813 0.477832 12.5578 0.254395 12.2813 0.254395H1.71876C1.4422 0.254395 1.21876 0.477832 1.21876 0.754395V2.75596C0.957822 2.77158 0.75001 2.98877 0.75001 3.2544V5.31221C0.749009 5.6904 0.825587 6.06478 0.97501 6.41221C1.0422 6.57158 1.12501 6.72158 1.21876 6.86377V12.2544C1.21876 12.5294 1.4422 12.7544 1.71876 12.7544H12.2813C12.5578 12.7544 12.7813 12.531 12.7813 12.2544V6.86377C12.8765 6.72122 12.9581 6.57004 13.025 6.41221C13.1734 6.06377 13.25 5.69346 13.25 5.31221V3.2544C13.25 2.98877 13.0422 2.77158 12.7813 2.75596ZM2.34376 1.37939H11.6563V2.75439H2.34376V1.37939ZM8.00001 11.631H6.00001V10.0044H8.00001V11.631ZM11.6563 11.631H9.00001V9.5044C9.00001 9.22783 8.77657 9.0044 8.50001 9.0044H5.50001C5.22345 9.0044 5.00001 9.22783 5.00001 9.5044V11.631H2.34376V7.84658C2.38907 7.86846 2.43595 7.89033 2.48438 7.90908C2.83282 8.05596 3.20313 8.1294 3.58438 8.1294C3.96563 8.1294 4.33438 8.05596 4.68438 7.90908C4.90001 7.81846 5.10313 7.70283 5.28907 7.56377C5.2922 7.56221 5.29532 7.56221 5.29845 7.56377C5.48496 7.70342 5.68807 7.81941 5.90313 7.90908C6.25157 8.05596 6.62188 8.1294 7.00313 8.1294C7.38438 8.1294 7.75313 8.05596 8.10313 7.90908C8.31876 7.81846 8.52188 7.70283 8.70782 7.56377C8.71095 7.56221 8.71407 7.56221 8.7172 7.56377C8.90371 7.70342 9.10682 7.81941 9.32188 7.90908C9.67032 8.05596 10.0406 8.1294 10.4219 8.1294C10.8031 8.1294 11.1719 8.05596 11.5219 7.90908C11.5688 7.88877 11.6156 7.86846 11.6625 7.84658V11.631H11.6563ZM12.125 5.31221C12.125 6.24658 11.3594 7.0044 10.4172 7.0044C9.7797 7.0044 9.22345 6.65908 8.9297 6.14658C8.88438 6.06846 8.80313 6.02002 8.71251 6.02002H8.70313C8.61407 6.02002 8.53126 6.06846 8.48595 6.14658C8.33604 6.40801 8.11959 6.6251 7.8586 6.77577C7.5976 6.92643 7.30137 7.00532 7.00001 7.0044C6.36407 7.0044 5.80938 6.66065 5.51563 6.14971C5.46876 6.07002 5.38438 6.02002 5.2922 6.02002C5.20001 6.02002 5.11407 6.07002 5.06876 6.14971C4.91798 6.41014 4.70125 6.62625 4.44039 6.7763C4.17953 6.92634 3.88375 7.00501 3.58282 7.0044C2.64063 7.0044 1.87501 6.24658 1.87501 5.31221V3.88721C1.87501 3.88252 1.87813 3.8794 1.88282 3.8794H12.1172C12.1219 3.8794 12.125 3.88252 12.125 3.88721V5.31221Z"
          fill="currentColor"/>
</svg>
