<svg width="14" height="14" viewBox="0 0 14 14" fill="none" xmlns="http://www.w3.org/2000/svg">
<path d="M12.4141 10.432C12.1194 9.73382 11.6916 9.09964 11.1547 8.5648C10.6195 8.0284 9.9854 7.60074 9.28754 7.30542C9.28129 7.3023 9.27504 7.30073 9.26879 7.29761C10.2422 6.59448 10.875 5.44917 10.875 4.15698C10.875 2.01636 9.14066 0.281982 7.00004 0.281982C4.85941 0.281982 3.12504 2.01636 3.12504 4.15698C3.12504 5.44917 3.75785 6.59448 4.73129 7.29917C4.72504 7.3023 4.71879 7.30386 4.71254 7.30698C4.01254 7.6023 3.38441 8.02573 2.84535 8.56636C2.30896 9.10162 1.8813 9.73569 1.58598 10.4335C1.29585 11.1168 1.13939 11.8492 1.12504 12.5914C1.12462 12.608 1.12755 12.6246 1.13364 12.6402C1.13974 12.6557 1.14888 12.6698 1.16053 12.6818C1.17218 12.6937 1.1861 12.7032 1.20147 12.7097C1.21684 12.7162 1.23336 12.7195 1.25004 12.7195H2.18754C2.25629 12.7195 2.31098 12.6648 2.31254 12.5976C2.34379 11.3914 2.82816 10.2617 3.68441 9.40542C4.57035 8.51948 5.74691 8.03198 7.00004 8.03198C8.25316 8.03198 9.42973 8.51948 10.3157 9.40542C11.1719 10.2617 11.6563 11.3914 11.6875 12.5976C11.6891 12.6664 11.7438 12.7195 11.8125 12.7195H12.75C12.7667 12.7195 12.7832 12.7162 12.7986 12.7097C12.814 12.7032 12.8279 12.6937 12.8396 12.6818C12.8512 12.6698 12.8603 12.6557 12.8664 12.6402C12.8725 12.6246 12.8755 12.608 12.875 12.5914C12.8594 11.8445 12.7047 11.1179 12.4141 10.432ZM7.00004 6.84448C6.28285 6.84448 5.60785 6.5648 5.10004 6.05698C4.59223 5.54917 4.31254 4.87417 4.31254 4.15698C4.31254 3.4398 4.59223 2.7648 5.10004 2.25698C5.60785 1.74917 6.28285 1.46948 7.00004 1.46948C7.71723 1.46948 8.39223 1.74917 8.90004 2.25698C9.40785 2.7648 9.68754 3.4398 9.68754 4.15698C9.68754 4.87417 9.40785 5.54917 8.90004 6.05698C8.39223 6.5648 7.71723 6.84448 7.00004 6.84448Z" fill="currentColor"/>
</svg>
