<svg width="14" height="14" viewBox="0 0 14 14" fill="none" xmlns="http://www.w3.org/2000/svg">
<path d="M3.375 10.2544H4.625C4.69375 10.2544 4.75 10.1981 4.75 10.1294V2.87939C4.75 2.81064 4.69375 2.75439 4.625 2.75439H3.375C3.30625 2.75439 3.25 2.81064 3.25 2.87939V10.1294C3.25 10.1981 3.30625 10.2544 3.375 10.2544ZM6.375 5.8794H7.625C7.69375 5.8794 7.75 5.82315 7.75 5.7544V2.87939C7.75 2.81064 7.69375 2.75439 7.625 2.75439H6.375C6.30625 2.75439 6.25 2.81064 6.25 2.87939V5.7544C6.25 5.82315 6.30625 5.8794 6.375 5.8794ZM9.375 7.0044H10.625C10.6938 7.0044 10.75 6.94815 10.75 6.8794V2.87939C10.75 2.81064 10.6938 2.75439 10.625 2.75439H9.375C9.30625 2.75439 9.25 2.81064 9.25 2.87939V6.8794C9.25 6.94815 9.30625 7.0044 9.375 7.0044ZM12.75 0.254395H1.25C0.973438 0.254395 0.75 0.477832 0.75 0.754395V12.2544C0.75 12.531 0.973438 12.7544 1.25 12.7544H12.75C13.0266 12.7544 13.25 12.531 13.25 12.2544V0.754395C13.25 0.477832 13.0266 0.254395 12.75 0.254395ZM12.125 11.6294H1.875V1.37939H12.125V11.6294Z" fill="currentColor" fill-opacity="0.85"/>
</svg>
