<svg width="14" height="14" viewBox="0 0 14 14" fill="none" xmlns="http://www.w3.org/2000/svg">
<path d="M12.75 0.254395H1.25C0.973438 0.254395 0.75 0.477832 0.75 0.754395V12.2544C0.75 12.531 0.973438 12.7544 1.25 12.7544H12.75C13.0266 12.7544 13.25 12.531 13.25 12.2544V0.754395C13.25 0.477832 13.0266 0.254395 12.75 0.254395ZM12.125 11.6294H1.875V1.37939H12.125V11.6294ZM6.6875 4.7544H9.5625C9.63125 4.7544 9.6875 4.69814 9.6875 4.6294V3.8794C9.6875 3.81064 9.63125 3.7544 9.5625 3.7544H6.6875C6.61875 3.7544 6.5625 3.81064 6.5625 3.8794V4.6294C6.5625 4.69814 6.61875 4.7544 6.6875 4.7544ZM6.6875 7.0044H9.5625C9.63125 7.0044 9.6875 6.94815 9.6875 6.8794V6.1294C9.6875 6.06065 9.63125 6.0044 9.5625 6.0044H6.6875C6.61875 6.0044 6.5625 6.06065 6.5625 6.1294V6.8794C6.5625 6.94815 6.61875 7.0044 6.6875 7.0044ZM6.6875 9.2544H9.5625C9.63125 9.2544 9.6875 9.19815 9.6875 9.1294V8.3794C9.6875 8.31065 9.63125 8.2544 9.5625 8.2544H6.6875C6.61875 8.2544 6.5625 8.31065 6.5625 8.3794V9.1294C6.5625 9.19815 6.61875 9.2544 6.6875 9.2544ZM4.3125 4.2544C4.3125 4.42016 4.37835 4.57913 4.49556 4.69634C4.61277 4.81355 4.77174 4.8794 4.9375 4.8794C5.10326 4.8794 5.26223 4.81355 5.37944 4.69634C5.49665 4.57913 5.5625 4.42016 5.5625 4.2544C5.5625 4.08863 5.49665 3.92966 5.37944 3.81245C5.26223 3.69524 5.10326 3.6294 4.9375 3.6294C4.77174 3.6294 4.61277 3.69524 4.49556 3.81245C4.37835 3.92966 4.3125 4.08863 4.3125 4.2544ZM4.3125 6.5044C4.3125 6.67016 4.37835 6.82913 4.49556 6.94634C4.61277 7.06355 4.77174 7.1294 4.9375 7.1294C5.10326 7.1294 5.26223 7.06355 5.37944 6.94634C5.49665 6.82913 5.5625 6.67016 5.5625 6.5044C5.5625 6.33863 5.49665 6.17966 5.37944 6.06245C5.26223 5.94524 5.10326 5.8794 4.9375 5.8794C4.77174 5.8794 4.61277 5.94524 4.49556 6.06245C4.37835 6.17966 4.3125 6.33863 4.3125 6.5044ZM4.3125 8.7544C4.3125 8.92016 4.37835 9.07913 4.49556 9.19634C4.61277 9.31355 4.77174 9.3794 4.9375 9.3794C5.10326 9.3794 5.26223 9.31355 5.37944 9.19634C5.49665 9.07913 5.5625 8.92016 5.5625 8.7544C5.5625 8.58864 5.49665 8.42966 5.37944 8.31245C5.26223 8.19524 5.10326 8.1294 4.9375 8.1294C4.77174 8.1294 4.61277 8.19524 4.49556 8.31245C4.37835 8.42966 4.3125 8.58864 4.3125 8.7544Z" fill="currentColor"/>
</svg>
