<svg width="14" height="14" viewBox="0 0 14 14" fill="none" xmlns="http://www.w3.org/2000/svg">
<path d="M9.00938 5.21953H13.0266C13.15 5.21953 13.25 5.11953 13.25 4.99609V0.977344C13.25 0.853906 13.15 0.753906 13.0266 0.753906H9.00938C8.88594 0.753906 8.78594 0.853906 8.78594 0.977344V2.42891H6.66563C6.60469 2.42891 6.55469 2.47891 6.55469 2.53984V6.00078H5.21563V4.49297C5.21563 4.36953 5.11563 4.26953 4.99219 4.26953H0.973438C0.85 4.26953 0.75 4.36953 0.75 4.49297V8.51172C0.75 8.63516 0.85 8.73516 0.973438 8.73516H4.99063C5.11406 8.73516 5.21406 8.63516 5.21406 8.51172V7.00391H6.55313V10.4648C6.55313 10.5258 6.60313 10.5758 6.66406 10.5758H8.78438V12.0273C8.78438 12.1508 8.88438 12.2508 9.00781 12.2508H13.025C13.1484 12.2508 13.2484 12.1508 13.2484 12.0273V8.01172C13.2484 7.88828 13.1484 7.78828 13.025 7.78828H9.00938C8.88594 7.78828 8.78594 7.88828 8.78594 8.01172V9.57422H7.55781V3.43359H8.78594V4.99609C8.78594 5.11953 8.88594 5.21953 9.00938 5.21953ZM9.84531 1.81484H12.1891V4.16016H9.84531V1.81484ZM4.15469 7.67578H1.81094V5.33203H4.15469V7.67578ZM9.84531 8.84922H12.1891V11.1945H9.84531V8.84922Z" fill="currentColor" fill-opacity="0.85"/>
</svg>
