<svg width="14" height="14" viewBox="0 0 14 14" fill="none" xmlns="http://www.w3.org/2000/svg">
<path d="M11.8782 9.4407C11.4871 9.04929 11.0301 8.72982 10.5282 8.49695C11.236 7.92351 11.6875 7.04851 11.6875 6.06726C11.6875 4.33601 10.2438 2.9157 8.51254 2.94226C6.80785 2.96882 5.43441 4.35789 5.43441 6.06726C5.43441 7.04851 5.88754 7.92351 6.59379 8.49695C6.09177 8.72965 5.63476 9.04914 5.24379 9.4407C4.39066 10.2954 3.90629 11.4235 3.87504 12.6266C3.87462 12.6433 3.87755 12.6599 3.88364 12.6754C3.88974 12.691 3.89888 12.7051 3.91053 12.7171C3.92218 12.729 3.9361 12.7385 3.95147 12.745C3.96684 12.7514 3.98336 12.7548 4.00004 12.7548H4.87504C4.94223 12.7548 4.99848 12.7016 5.00004 12.6344C5.02973 11.7282 5.39691 10.8798 6.04223 10.236C6.37245 9.90404 6.76523 9.64085 7.19784 9.46169C7.63045 9.28254 8.0943 9.19096 8.56254 9.19226C9.5141 9.19226 10.4094 9.56257 11.0829 10.236C11.7266 10.8798 12.0938 11.7282 12.125 12.6344C12.1266 12.7016 12.1829 12.7548 12.25 12.7548H13.125C13.1417 12.7548 13.1582 12.7514 13.1736 12.745C13.189 12.7385 13.2029 12.729 13.2146 12.7171C13.2262 12.7051 13.2353 12.691 13.2414 12.6754C13.2475 12.6599 13.2505 12.6433 13.25 12.6266C13.2188 11.4235 12.7344 10.2954 11.8782 9.4407ZM8.56254 8.06726C8.02816 8.06726 7.52504 7.85945 7.14848 7.48132C6.9595 7.29383 6.81022 7.0702 6.70955 6.82376C6.60888 6.57732 6.55888 6.31313 6.56254 6.04695C6.56723 5.53445 6.77191 5.03914 7.12973 4.67195C7.50473 4.28757 8.00629 4.07351 8.54223 4.06726C9.07191 4.06257 9.58598 4.26882 9.9641 4.63914C10.3516 5.01882 10.5641 5.52664 10.5641 6.06726C10.5641 6.60164 10.3563 7.1032 9.97816 7.48132C9.79265 7.66772 9.57202 7.81549 9.32903 7.91606C9.08604 8.01664 8.82552 8.06803 8.56254 8.06726ZM4.64848 6.47976C4.63441 6.34382 4.6266 6.20632 4.6266 6.06726C4.6266 5.81882 4.65004 5.57664 4.69379 5.3407C4.70473 5.28445 4.67504 5.22664 4.62348 5.2032C4.41098 5.10789 4.21566 4.97664 4.04691 4.81101C3.84807 4.61821 3.6916 4.38608 3.58748 4.12942C3.48337 3.87277 3.4339 3.59723 3.44223 3.32039C3.45629 2.81882 3.65785 2.34226 4.00941 1.98289C4.39535 1.58757 4.9141 1.37195 5.46566 1.3782C5.9641 1.38289 6.44535 1.57507 6.80941 1.9157C6.93285 2.03132 7.0391 2.15945 7.12816 2.29695C7.15941 2.34539 7.22035 2.3657 7.27348 2.34695C7.54848 2.25164 7.8391 2.18445 8.13754 2.1532C8.22504 2.14382 8.27504 2.05007 8.23598 1.97195C7.72816 0.967261 6.69066 0.273511 5.49066 0.254761C3.75785 0.228199 2.3141 1.64851 2.3141 3.3782C2.3141 4.35945 2.76566 5.23445 3.47348 5.80789C2.9766 6.03757 2.51879 6.35476 2.12191 6.75164C1.26566 7.60632 0.781289 8.73445 0.750039 9.93914C0.749622 9.95581 0.752547 9.9724 0.758642 9.98793C0.764737 10.0035 0.773878 10.0176 0.785527 10.0296C0.797176 10.0415 0.811098 10.051 0.826471 10.0575C0.841844 10.0639 0.858358 10.0673 0.875039 10.0673H1.7516C1.81879 10.0673 1.87504 10.0141 1.8766 9.94695C1.90629 9.0407 2.27348 8.19226 2.91879 7.54851C3.37816 7.08914 3.94066 6.77039 4.55473 6.6157C4.61566 6.60007 4.65629 6.54226 4.64848 6.47976Z" fill="currentColor"/>
</svg>
